<?xml version="1.0" standalone="no"?>
<!DOCTYPE svg PUBLIC "-//W3C//DTD SVG 20010904//EN"
 "http://www.w3.org/TR/2001/REC-SVG-20010904/DTD/svg10.dtd">
<svg version="1.0" xmlns="http://www.w3.org/2000/svg"
 width="298.000000pt" height="232.000000pt" viewBox="0 0 298.000000 232.000000"
 preserveAspectRatio="xMidYMid meet">

<g transform="translate(0.000000,232.000000) scale(0.100000,-0.100000)"
fill="#000000" stroke="none">
<path d="M2196 1631 c-3 -5 1 -14 8 -20 10 -9 16 -9 21 -1 4 6 1 9 -7 8 -7 -2
-12 3 -10 10 2 14 -4 16 -12 3z"/>
<path d="M2133 1580 c5 -21 33 -24 41 -4 6 14 4 15 -10 4 -13 -12 -17 -11 -26
1 -8 12 -9 12 -5 -1z"/>
<path d="M795 1560 c-3 -6 1 -7 9 -4 18 7 21 14 7 14 -6 0 -13 -4 -16 -10z"/>
<path d="M716 1493 c-6 -14 -5 -15 5 -6 7 7 10 15 7 18 -3 3 -9 -2 -12 -12z"/>
<path d="M2345 1500 c-3 -6 1 -7 9 -4 9 3 16 2 16 -3 0 -5 7 -18 15 -29 10
-12 14 -14 13 -5 -4 17 -30 51 -40 51 -4 0 -10 -4 -13 -10z"/>
<path d="M562 1483 c2 -11 -2 -17 -10 -15 -8 1 -11 -2 -7 -8 10 -16 35 8 28
26 -7 20 -14 18 -11 -3z"/>
<path d="M2320 1471 c0 -13 26 -32 33 -24 4 3 7 13 6 22 0 12 -3 11 -9 -4 -7
-17 -9 -17 -9 -2 -1 17 -21 25 -21 8z"/>
<path d="M663 1458 c4 -10 -1 -18 -14 -21 -10 -3 -19 -10 -19 -16 0 -16 15
-13 33 7 12 13 13 21 6 32 -9 13 -10 12 -6 -2z"/>
<path d="M2294 1452 c-9 -13 -6 -21 13 -35 13 -11 27 -17 30 -13 4 3 0 6 -8 6
-11 0 -11 2 1 10 10 6 11 10 3 10 -7 0 -13 6 -13 14 0 22 -15 27 -26 8z"/>
<path d="M1310 1406 c0 -8 -6 -17 -12 -19 -8 -4 -7 -6 4 -6 9 -1 19 -7 21 -13
4 -10 6 -10 6 0 1 7 6 10 11 7 6 -3 10 -1 10 4 0 6 -8 11 -17 12 -11 0 -13 3
-5 6 17 7 15 23 -3 23 -8 0 -15 -6 -15 -14z"/>
<path d="M1759 1399 l25 -20 -25 2 c-13 1 -33 1 -44 0 -16 -1 -17 -3 -5 -11 9
-6 17 -5 23 3 7 9 10 9 14 -1 4 -10 10 -9 31 4 20 13 24 14 20 2 -4 -8 -1 -15
6 -15 6 0 12 8 12 18 0 10 -3 16 -7 13 -4 -2 -9 3 -13 11 -3 8 -17 15 -33 15
l-28 -1 24 -20z m31 1 c0 -5 -2 -10 -4 -10 -3 0 -8 5 -11 10 -3 6 -1 10 4 10
6 0 11 -4 11 -10z"/>
<path d="M2458 1396 c5 -19 4 -19 -11 -7 -19 15 -23 1 -5 -17 9 -9 9 -12 1
-12 -7 0 -15 5 -18 10 -9 15 -25 12 -25 -6 0 -9 -5 -13 -12 -9 -7 4 -3 -2 9
-13 28 -24 15 -48 -25 -44 -18 2 -34 -3 -43 -14 -9 -11 -9 -15 -2 -10 9 5 11
2 7 -8 -3 -8 -12 -12 -20 -9 -12 4 -14 -35 -14 -256 0 -201 -3 -262 -12 -265
-7 -2 -71 -9 -143 -15 -135 -12 -262 -35 -377 -69 -38 -12 -68 -18 -68 -15 0
3 50 57 111 121 71 75 121 137 140 174 16 32 26 58 23 58 -4 0 -1 6 5 14 16
19 15 163 -2 210 -8 25 -16 35 -21 28 -9 -14 -56 -16 -56 -2 0 5 7 7 16 3 14
-5 15 0 10 33 -6 47 -2 37 -26 64 -17 19 -23 21 -33 10 -9 -10 -9 -11 1 -6 6
4 12 2 12 -4 0 -6 -8 -13 -17 -17 -10 -3 -28 -15 -41 -26 l-22 -21 26 -27 c14
-15 31 -26 38 -25 6 2 8 1 4 -1 -3 -2 -2 -20 4 -41 15 -55 6 -150 -21 -205
-14 -28 -71 -99 -135 -166 -61 -64 -138 -149 -171 -189 -32 -40 -62 -72 -65
-72 -3 0 -14 10 -24 23 -91 107 -152 176 -231 258 -116 122 -140 168 -140 271
0 42 -3 74 -7 71 -5 -2 -8 5 -8 17 0 13 -4 19 -12 14 -6 -4 -8 -3 -5 3 4 6 17
8 30 6 17 -4 28 2 41 22 22 33 12 62 -32 94 -29 20 -30 20 -46 2 -13 -15 -14
-20 -4 -24 10 -4 9 -6 -2 -6 -17 -1 -25 -57 -10 -66 18 -11 10 -23 -11 -18
-12 3 -18 11 -15 19 3 8 1 14 -4 14 -17 0 -34 -76 -32 -151 2 -128 35 -186
202 -359 50 -52 87 -96 82 -98 -5 -1 -60 11 -123 27 -121 31 -227 48 -374 59
l-90 7 -3 260 -2 260 -25 22 c-13 13 -37 23 -53 23 -43 0 -46 10 -13 44 l30
31 -27 1 c-38 0 -66 7 -74 18 -4 6 -14 4 -24 -5 -16 -13 -17 -12 -10 6 6 17 4
17 -18 -4 -21 -19 -23 -27 -15 -44 9 -15 7 -23 -6 -36 -16 -15 -17 -14 -10 9
5 19 4 21 -4 10 -9 -12 -11 -13 -11 -1 0 8 -3 11 -6 8 -4 -4 0 -17 9 -31 16
-23 16 -24 -9 -21 -13 1 -28 6 -32 10 -4 5 1 5 10 2 10 -4 18 -2 18 3 0 16
-17 20 -32 7 -19 -14 -33 -67 -18 -67 5 0 12 -11 16 -24 6 -25 7 -25 109 -23
69 1 101 -1 95 -8 -5 -6 -9 -111 -10 -235 0 -123 -2 -225 -3 -226 -1 -2 -34
-8 -72 -14 -138 -21 -273 -74 -386 -151 -70 -47 -81 -61 -37 -48 146 45 254
59 449 59 152 0 270 -11 364 -34 11 -3 50 -12 87 -21 103 -24 223 -68 383
-141 l146 -67 97 46 c53 25 117 55 142 65 58 26 241 87 303 101 204 47 268 54
487 48 196 -5 260 -12 357 -43 30 -9 56 -15 58 -12 8 8 -107 85 -176 117 -84
39 -140 57 -244 77 l-85 17 -1 91 c-1 50 -3 156 -5 236 l-3 145 89 -3 c62 -2
90 0 90 8 0 6 4 8 10 5 6 -4 7 1 3 11 -5 13 -3 15 7 9 9 -5 11 -4 6 4 -4 6 -2
18 4 26 9 11 9 15 1 15 -6 0 -11 -4 -11 -10 0 -5 -5 -10 -12 -10 -7 0 -6 6 4
18 19 21 13 42 -13 42 -11 0 -17 -5 -14 -10 4 -6 11 -8 16 -5 5 3 6 -2 2 -11
-5 -14 -10 -12 -32 15 -26 32 -41 39 -41 21 0 -5 7 -10 16 -10 8 0 12 -5 9
-10 -4 -7 -13 -6 -27 1 -18 10 -20 9 -14 -7 4 -12 -7 -5 -28 16 -19 19 -30 37
-24 39 6 2 14 -2 18 -9 5 -8 16 -6 41 10 23 15 27 20 13 17 -12 -2 -28 0 -35
5 -11 8 -10 9 4 4 27 -9 20 7 -12 25 -28 16 -28 16 -23 -5z m-548 -101 c0 -5
-5 -3 -10 5 -8 13 -11 12 -25 -5 -17 -21 -9 0 8 23 8 11 12 11 18 0 5 -7 9
-17 9 -23z m-863 -47 c-3 -8 -6 -5 -6 6 -1 11 2 17 5 13 3 -3 4 -12 1 -19z"/>
<path d="M586 1398 c3 -4 12 -4 21 -1 12 5 14 3 8 -7 -5 -9 -4 -11 4 -6 16 10
4 25 -19 23 -10 -1 -17 -5 -14 -9z"/>
<path d="M1154 1399 c-3 -5 6 -9 20 -9 14 0 26 -4 26 -9 0 -5 -10 -7 -22 -4
-19 4 -20 3 -8 -6 10 -7 11 -11 3 -11 -7 0 -13 -5 -13 -12 0 -9 3 -9 12 0 17
17 28 15 29 -5 0 -16 1 -16 8 1 5 12 10 16 14 9 10 -16 -2 -41 -21 -47 -10 -2
1 -2 23 1 22 3 42 9 45 13 3 3 13 9 23 13 21 8 23 37 1 37 -8 0 -13 -4 -9 -9
3 -5 -5 -17 -17 -25 -32 -23 -45 -20 -18 4 l24 20 -25 -2 c-16 -2 -23 2 -21
10 1 8 -2 11 -7 8 -5 -3 -11 0 -14 8 -6 16 -45 28 -53 15z"/>
<path d="M1578 1399 c-25 -10 -26 -11 -10 -30 17 -20 42 -26 42 -9 0 6 7 10
15 10 8 0 15 -4 15 -10 0 -5 -4 -10 -8 -10 -4 0 -8 -9 -9 -19 -1 -14 3 -18 14
-14 11 4 14 2 9 -5 -11 -18 52 -15 70 2 8 8 14 19 14 24 0 19 -33 22 -52 6
-10 -10 -21 -14 -26 -9 -4 4 -1 10 6 12 22 8 13 22 -20 31 -18 5 -32 14 -30
21 1 6 1 11 0 10 -2 0 -15 -5 -30 -10z m12 -20 c0 -5 5 -7 12 -3 7 4 8 3 4 -4
-10 -16 -23 -15 -30 3 -3 8 -1 15 4 15 6 0 10 -5 10 -11z m120 -39 c0 -5 -5
-10 -11 -10 -5 0 -7 5 -4 10 3 6 8 10 11 10 2 0 4 -4 4 -10z"/>
<path d="M1115 1381 c-3 -5 -2 -12 3 -15 5 -3 9 1 9 9 0 17 -3 19 -12 6z"/>
<path d="M1432 1353 c2 -10 -12 -24 -40 -39 l-44 -23 34 -21 c18 -11 39 -20
46 -20 6 0 11 -6 10 -12 -2 -7 3 -12 10 -10 8 1 11 -1 8 -6 -3 -5 1 -17 8 -28
12 -15 16 -16 30 -5 19 16 21 41 4 41 -9 0 -9 3 0 12 10 10 15 10 21 -1 6 -10
16 -6 40 18 36 35 38 41 12 41 -10 0 -30 9 -44 20 -14 11 -35 20 -46 20 -12 0
-21 4 -21 9 0 5 -7 12 -15 15 -11 4 -15 0 -13 -11z m52 -94 c-9 -10 -22 -19
-28 -18 -6 0 -6 3 2 6 24 9 12 23 -18 19 -17 -2 -32 0 -35 4 -2 4 6 7 18 6 12
-1 33 4 47 11 31 16 39 0 14 -28z"/>
<path d="M323 460 c-85 -13 -185 -47 -243 -84 -30 -20 -53 -36 -50 -36 3 0 50
9 105 20 322 64 658 19 1020 -135 114 -49 266 -124 299 -148 17 -12 29 -8 111
34 235 123 443 202 650 245 116 25 151 28 320 28 154 0 208 -4 285 -21 52 -11
97 -19 99 -17 8 8 -101 66 -158 84 -204 64 -480 46 -830 -55 -119 -34 -330
-109 -407 -145 l-41 -19 -149 59 c-396 156 -766 226 -1011 190z"/>
</g>
</svg>
